<svg xmlns="http://www.w3.org/2000/svg" viewBox="0 0 110.04 95.06"><defs><style>.cls-1{fill:#fff;}</style></defs><g id="Layer_2" data-name="Layer 2"><g id="Layer_3" data-name="Layer 3"><path class="cls-1" d="M109.74,13.23a6.81,6.81,0,0,0-6.62-5.44H85A10.36,10.36,0,0,0,75,0V4.85a5.5,5.5,0,0,1,5,7.79H72a10.58,10.58,0,0,0,.26-2.26A10.38,10.38,0,0,0,61.86,0h-.07V4.85h.07a5.49,5.49,0,0,1,5,7.8H58.83a10.58,10.58,0,0,0,.26-2.26A10.37,10.37,0,0,0,48.72,0V4.85a5.5,5.5,0,0,1,5,7.79H45.68a10.58,10.58,0,0,0,.26-2.26A10.36,10.36,0,0,0,25.55,7.79H6.92A6.83,6.83,0,0,0,.3,13.23,3.38,3.38,0,0,0,0,14.71V88.14a6.92,6.92,0,0,0,6.92,6.92h96.2A6.92,6.92,0,0,0,110,88.14V14.71A3.24,3.24,0,0,0,109.74,13.23ZM4.84,30.28H26.27V47H4.84ZM75,63.43l-3.5,3.51-3.21-3.2-3.2,3.2-3.51-3.51,3.21-3.2L61.56,57l3.51-3.51,3.2,3.2,3.21-3.2L75,57l-3.2,3.2ZM52.57,52.19v16H31.49v-16ZM57.8,47V30.28H78.71V47Zm-53,5.22H26.27v16H4.84ZM31.49,73.42H52.57v16.8H31.49Zm26.31,0H78.71v16.8H57.8ZM83.94,52.19H105.2v16H83.94Zm0-5.22V30.28H105.2V47ZM35.56,4.84a5.51,5.51,0,0,1,5,7.8H35.11V7.79H30.76A5.49,5.49,0,0,1,35.56,4.84Zm67.56,85.38H83.94V73.42H105.2V88.14A2.09,2.09,0,0,1,103.12,90.22Z"/></g></g></svg>