<svg xmlns="http://www.w3.org/2000/svg" viewBox="0 0 106.33 110.04"><defs><style>.cls-1{fill:#fff;fill-rule:evenodd;}</style></defs><g id="Layer_2" data-name="Layer 2"><g id="Layer_3" data-name="Layer 3"><path class="cls-1" d="M102.2,49.59l.15-.77a7.5,7.5,0,0,0-1.92-6.61C100.35,18.93,79.11,0,53,0S5.79,18.82,5.59,42a7.44,7.44,0,0,0-1.9,6.54l.21,1.07A5.78,5.78,0,0,0,.1,56.16L3.56,74.28A5.77,5.77,0,0,0,9.23,79c.14,0,.28,0,.42,0l.27,1.37a7.45,7.45,0,0,0,8.74,5.88L23,85.35a7.45,7.45,0,0,0,5.87-8.74l-6.16-31.4-.05-2.93c-.1-5,2.27-10.26,6.67-14.8A35,35,0,0,1,53.05,17h.31c8.12,0,17,4,23.28,10.46,4.53,4.7,6.94,9.93,6.77,14.73l-.1,2.68c0,.06,0,.12,0,.18L77,77.15A7.53,7.53,0,0,0,82.9,86l1.24.24C79.38,91.76,73.85,95,67.32,96l-.67.1a6.92,6.92,0,0,1,1.21,4.37,6.47,6.47,0,0,1-.79,2.57l1.36-.19c9.84-1.59,17.78-7,24.27-16.44.17-.24.49-.72.81-1.24a7.56,7.56,0,0,0,2.55-4.31l.32-1.66a4.48,4.48,0,0,0,.63.06,5.84,5.84,0,0,0,5.73-4.74l3.49-18.3A5.83,5.83,0,0,0,102.2,49.59ZM81.63,22.68C74,14.81,63,10,53,10.09A42.18,42.18,0,0,0,24.3,22.65a29.57,29.57,0,0,0-8.42,16.21,7.73,7.73,0,0,0-1.36,0H12.71C14.71,21,32,6.94,53,6.94S91.3,21,93.3,38.87H90.15C89.39,33.3,86.44,27.66,81.63,22.68Z"/><path class="cls-1" d="M53.29,89.66A10.19,10.19,0,1,0,63.48,99.85,10.19,10.19,0,0,0,53.29,89.66Z"/></g></g></svg>