<svg xmlns="http://www.w3.org/2000/svg" viewBox="0 0 110.04 99.9"><defs><style>.cls-1{fill:#fff;}</style></defs><g id="Layer_2" data-name="Layer 2"><g id="Layer_3" data-name="Layer 3"><path class="cls-1" d="M109.85,30.5C108.25,12.82,95.74,0,80.08,0A29.61,29.61,0,0,0,54.72,14.61C49.4,5.5,40.23,0,30,0,14.36,0,1.88,12.73.2,30.32c0,.11,0,.22,0,.34a32.27,32.27,0,0,0,1,11.44,47.78,47.78,0,0,0,2.12,6.73H19.71l3.83-7.46A3.85,3.85,0,0,1,27,39.28h.38a3.85,3.85,0,0,1,3.32,2.79l2.2,7.86.94-.08,6-23.08a3.86,3.86,0,0,1,3.71-2.89h0a3.85,3.85,0,0,1,3.71,2.85L53,48.26,56.48,48a3.84,3.84,0,0,1,3.3-3.3l6.69-.88,5-11.51A3.83,3.83,0,0,1,75,30h.18a3.85,3.85,0,0,1,3.48,2.63L83,45.77l1.36-.11,1.84-3.93a3.83,3.83,0,0,1,3.48-2.22h19.81A28.41,28.41,0,0,0,109.85,30.5Z"/><path class="cls-1" d="M86.37,59.43a3.83,3.83,0,0,1-3.48,2.22h-.23A3.84,3.84,0,0,1,79.24,59L75.09,46.43l-1.43.11-1,2.3a3.84,3.84,0,0,1-3,2.29l-5.86.77L60.84,78.5a3.83,3.83,0,0,1-3.52,3.41H57a3.83,3.83,0,0,1-3.71-2.84l-8.1-30.17-3.29.27L37.21,67.39a3.86,3.86,0,0,1-3.69,2.88h0a3.84,3.84,0,0,1-3.71-2.81L25.9,53.62l-.41.81a3.86,3.86,0,0,1-3.43,2.09H7.14a51.35,51.35,0,0,0,9.22,11L50,98.08a7,7,0,0,0,9.35,0L93.68,67.53A50.38,50.38,0,0,0,107.42,47.2H92.1Z"/></g></g></svg>