<svg xmlns="http://www.w3.org/2000/svg" viewBox="0 0 110.04 102.54"><defs><style>.cls-1{fill:#fff;}</style></defs><g id="Layer_2" data-name="Layer 2"><g id="Layer_3" data-name="Layer 3"><path class="cls-1" d="M108.17,50.52,59.53,1.87a6.38,6.38,0,0,0-9,0L1.87,50.52a6.36,6.36,0,0,0,0,9l4.65,4.66a6.37,6.37,0,0,0,9,0L55,24.69,94.51,64.18a6.37,6.37,0,0,0,9,0l4.65-4.66A6.36,6.36,0,0,0,108.17,50.52Z"/><path class="cls-1" d="M54.93,29,22,62l-4.43,4.43V95.61a6.92,6.92,0,0,0,6.92,6.93H35.52a6.93,6.93,0,0,0,6.93-6.93V78.1a3.92,3.92,0,0,1,3.92-3.92H63.76a3.92,3.92,0,0,1,3.92,3.92V95.61a6.92,6.92,0,0,0,6.92,6.93h11a6.92,6.92,0,0,0,6.92-6.93v-29L88,62.09Zm-.55,15a7.84,7.84,0,1,1-7.17,7.18A7.84,7.84,0,0,1,54.38,44Z"/></g></g></svg>