<svg xmlns="http://www.w3.org/2000/svg" viewBox="0 0 110.04 97.96"><defs><style>.cls-1{fill:#fff;}</style></defs><g id="Layer_2" data-name="Layer 2"><g id="Layer_3" data-name="Layer 3"><polygon class="cls-1" points="10.23 3.98 10.45 4.41 10.74 4.77 11.06 5.08 11.46 5.31 11.93 5.45 14.35 5.92 14.79 5.97 15.28 5.92 15.71 5.79 16.13 5.58 16.47 5.29 16.78 4.93 16.99 4.52 17.12 4.07 17.19 3.36 17.19 2.63 17.12 1.89 16.99 1.46 16.78 1.04 16.47 0.7 16.13 0.41 15.71 0.2 15.28 0.04 14.79 0 14.57 0 14.34 0.04 11.93 0.54 11.46 0.68 11.06 0.9 10.74 1.2 10.45 1.59 10.23 2 10.11 2.48 10.05 2.99 10.11 3.51 10.23 3.98"/><polygon class="cls-1" points="40.96 4.08 41.08 4.54 41.29 4.93 41.61 5.29 41.96 5.58 42.38 5.79 42.83 5.92 43.32 5.97 43.75 5.92 46.24 5.45 46.72 5.31 47.12 5.08 47.45 4.77 47.77 4.41 47.97 3.98 48.1 3.51 48.16 2.99 48.1 2.48 47.97 2 47.77 1.56 47.45 1.2 47.12 0.9 46.72 0.68 46.24 0.54 43.75 0.04 43.32 0 42.83 0.04 42.38 0.2 41.96 0.41 41.61 0.7 41.29 1.04 41.08 1.46 40.94 1.91 40.87 2.63 40.89 3.36 40.96 4.08"/><path class="cls-1" d="M110,61.07l-.22-1.29-.37-1.25-.51-1.16-.62-1.13-.73-1-.86-1-1-.83-1-.73-1.11-.63-1.19-.49-1.25-.37h-.1a15.49,15.49,0,0,0-31,.39V73.5a19.32,19.32,0,1,1-38.63,0V67c2.43-1.4,4.24-4.9,4.58-9.16,4.26-1.89,8-5.62,11.13-11.17C51,40,53.43,31.61,55.41,24.89c.2-.67.39-1.33.58-2,2-6.9,2.57-10.29,2-13-.73-3.29-3-4.84-5.7-6.63-.47-.32-1-.66-1.52-1L47.39,7.13c.57.4,1.11.76,1.61,1.1,2.4,1.61,3,2.11,3.23,3,.41,1.87-.72,6.11-1.88,10l-.59,2C46,36,40.86,53.42,29.1,53.42S12.19,36,8.44,23.23l-.59-2c-1.16-3.9-2.29-8.14-1.88-10,.2-.9.83-1.4,3.23-3,.5-.34,1-.7,1.61-1.1L7.45,2.3l-1.54,1C3.25,5.13,1,6.68.23,10c-.59,2.67-.07,6.06,2,13,.19.63.39,1.29.58,2C4.77,31.61,7.24,40,11,46.67Q15.77,55,22.17,57.84c.32,4,1.94,7.3,4.14,8.86v7a24.46,24.46,0,0,0,48.91-.17V51.62a10.35,10.35,0,0,1,20.7-.38h0l-1.25.37-1.18.49-1.12.63-1,.73-1,.83-.8,1-.76,1-.64,1.13-.49,1.16-.37,1.25L87,61.07,87,62.41,87,63.73,87.27,65l.37,1.24.49,1.2.64,1.07.76,1,.8,1,1,.85,1,.71,1.12.61,1.18.51,1.25.37,1.3.22,1.34.07,1.35-.07,1.3-.22,1.25-.37,1.19-.51,1.11-.61,1-.71,1-.85.86-1,.73-1,.62-1.07.51-1.2.37-1.24.22-1.29.07-1.32Zm-3.43,2.44-.22,1-.31,1-.5.93-.58.87-.69.76-.78.68-.86.59-.93.43-1,.37-1.06.22-1.1.07-1.1-.07-1.08-.22-1-.37-.94-.43-.88-.59-.78-.68-.66-.76-.59-.87-.46-.93-.35-1-.24-1-.07-1.1.07-1.1.24-1.07.35-1,.46-.93.59-.88.66-.75.78-.69.88-.56.94-.46,1-.37,1.08-.22,1.1-.07,1.1.07,1.06.22,1,.37.93.46.86.56.78.69.69.75.58.88.5.93.31,1,.22,1.07.07,1.1Z"/><polygon class="cls-1" points="103.7 60.68 103.36 59.9 102.92 59.19 102.38 58.56 101.74 58.02 101.01 57.56 100.25 57.24 99.39 57.05 98.51 56.97 97.61 57.05 96.8 57.24 95.99 57.56 95.28 58.02 94.64 58.56 94.08 59.19 93.64 59.9 93.32 60.68 93.13 61.51 93.05 62.41 93.13 63.28 93.32 64.12 93.64 64.89 94.08 65.6 94.64 66.24 95.28 66.77 95.99 67.21 96.8 67.55 97.61 67.75 98.51 67.82 99.39 67.75 100.25 67.55 101.01 67.21 101.74 66.77 102.38 66.24 102.92 65.6 103.36 64.89 103.7 64.12 103.92 63.28 103.97 62.41 103.92 61.51 103.7 60.68"/></g></g></svg>