<svg xmlns="http://www.w3.org/2000/svg" viewBox="0 0 110.04 110.04"><defs><style>.cls-1{fill:#fff;}</style></defs><g id="Layer_2" data-name="Layer 2"><g id="Layer_3" data-name="Layer 3"><path class="cls-1" d="M55,110A54.91,54.91,0,0,1,12.68,90.2a2.41,2.41,0,0,1,.14-3.09l9.82-9.88a2.76,2.76,0,0,1,1.79-.65,2.39,2.39,0,0,1,1.65.86A36.26,36.26,0,0,0,55,91.7,36.68,36.68,0,1,0,30.09,28.15L39.9,38a4.42,4.42,0,0,1,1,4.94,4.61,4.61,0,0,1-4.23,2.87H4.58A4.62,4.62,0,0,1,0,41.26V9.17A4.61,4.61,0,0,1,2.87,4.94,4.42,4.42,0,0,1,7.81,6l9.31,9.24A55.69,55.69,0,0,1,55,0a55,55,0,0,1,0,110Z"/></g></g></svg>